<svg width="88" height="88" viewBox="0 0 88 88" fill="none" xmlns="http://www.w3.org/2000/svg">
<g filter="url(#filter0_d_6005_6022)">
<rect x="16" y="10" width="56" height="56" rx="14" fill="url(#paint0_linear_6005_6022)" shape-rendering="crispEdges"/>
<path d="M52 30H36C34.8954 30 34 30.8954 34 32V44C34 45.1046 34.8954 46 36 46H52C53.1046 46 54 45.1046 54 44V32C54 30.8954 53.1046 30 52 30Z" stroke="white" stroke-width="2" stroke-linecap="round" stroke-linejoin="round"/>
<path d="M54 33L45.03 38.7C44.7213 38.8934 44.3643 38.996 44 38.996C43.6357 38.996 43.2787 38.8934 42.97 38.7L34 33" stroke="white" stroke-width="2" stroke-linecap="round" stroke-linejoin="round"/>
</g>
<defs>
<filter id="filter0_d_6005_6022" x="0" y="0" width="88" height="88" filterUnits="userSpaceOnUse" color-interpolation-filters="sRGB">
<feFlood flood-opacity="0" result="BackgroundImageFix"/>
<feColorMatrix in="SourceAlpha" type="matrix" values="0 0 0 0 0 0 0 0 0 0 0 0 0 0 0 0 0 0 127 0" result="hardAlpha"/>
<feOffset dy="6"/>
<feGaussianBlur stdDeviation="8"/>
<feComposite in2="hardAlpha" operator="out"/>
<feColorMatrix type="matrix" values="0 0 0 0 1 0 0 0 0 0.584314 0 0 0 0 0 0 0 0 0.25 0"/>
<feBlend mode="normal" in2="BackgroundImageFix" result="effect1_dropShadow_6005_6022"/>
<feBlend mode="normal" in="SourceGraphic" in2="effect1_dropShadow_6005_6022" result="shape"/>
</filter>
<linearGradient id="paint0_linear_6005_6022" x1="16" y1="10" x2="72" y2="66" gradientUnits="userSpaceOnUse">
<stop stop-color="#FFCC00"/>
<stop offset="1" stop-color="#FF9500"/>
</linearGradient>
</defs>
</svg>
