<svg width="88" height="88" viewBox="0 0 88 88" fill="none" xmlns="http://www.w3.org/2000/svg">
<g filter="url(#filter0_d_10044_4166)">
<rect x="16" y="10" width="56" height="56" rx="14" fill="url(#paint0_linear_10044_4166)" shape-rendering="crispEdges"/>
<path d="M43.4347 23.7801C39.733 23.7973 36.1888 25.28 33.5774 27.9036C30.966 30.5272 29.5 34.0783 29.5 37.78C29.5 41.4931 30.975 45.054 33.6005 47.6795C36.226 50.305 39.787 51.78 43.5 51.78C47.213 51.78 50.774 50.305 53.3995 47.6795C56.025 45.054 57.5 41.4931 57.5 37.78C57.5 34.067 56.025 30.5061 53.3995 27.8806C50.774 25.2551 47.213 23.7801 43.5 23.7801C43.4782 23.78 43.4564 23.78 43.4347 23.7801ZM49.2237 32.2081C49.3403 32.2057 49.5982 32.2349 49.7662 32.3714C49.8778 32.4683 49.949 32.6036 49.9657 32.7506C49.9843 32.8591 50.0077 33.1076 49.989 33.3012C49.779 35.5156 48.8667 40.8869 48.4023 43.366C48.2063 44.416 47.8202 44.7672 47.4457 44.801C46.6337 44.8769 46.0165 44.2644 45.229 43.7487C43.997 42.9402 43.3005 42.4374 42.1047 41.6487C40.7222 40.7387 41.6182 40.237 42.4057 39.4204C42.6122 39.2057 46.1938 35.9472 46.2638 35.6521C46.272 35.6147 46.2802 35.4771 46.1985 35.4047C46.1168 35.3324 45.9955 35.3569 45.908 35.3767C45.7843 35.4047 43.8162 36.7067 40.0035 39.2792C39.4447 39.6642 38.9383 39.8509 38.4845 39.8392C37.9852 39.8299 37.0238 39.558 36.3087 39.3259C35.4313 39.04 34.7348 38.8895 34.7955 38.4054C34.827 38.1534 35.1747 37.8955 35.8373 37.6319C39.9183 35.8539 42.639 34.6814 44.0017 34.1156C47.889 32.4986 48.6975 32.2174 49.2237 32.2081Z" fill="white"/>
</g>
<defs>
<filter id="filter0_d_10044_4166" x="0" y="0" width="88" height="88" filterUnits="userSpaceOnUse" color-interpolation-filters="sRGB">
<feFlood flood-opacity="0" result="BackgroundImageFix"/>
<feColorMatrix in="SourceAlpha" type="matrix" values="0 0 0 0 0 0 0 0 0 0 0 0 0 0 0 0 0 0 127 0" result="hardAlpha"/>
<feOffset dy="6"/>
<feGaussianBlur stdDeviation="8"/>
<feComposite in2="hardAlpha" operator="out"/>
<feColorMatrix type="matrix" values="0 0 0 0 0 0 0 0 0 0.466667 0 0 0 0 1 0 0 0 0.25 0"/>
<feBlend mode="normal" in2="BackgroundImageFix" result="effect1_dropShadow_10044_4166"/>
<feBlend mode="normal" in="SourceGraphic" in2="effect1_dropShadow_10044_4166" result="shape"/>
</filter>
<linearGradient id="paint0_linear_10044_4166" x1="16" y1="10" x2="72" y2="66" gradientUnits="userSpaceOnUse">
<stop stop-color="#0077FF" stop-opacity="0.83"/>
<stop offset="1" stop-color="#0055CC" stop-opacity="0.61"/>
</linearGradient>
</defs>
</svg>
