<svg width="88" height="88" viewBox="0 0 88 88" fill="none" xmlns="http://www.w3.org/2000/svg">
<g filter="url(#filter0_d_6005_6061)">
<rect x="16" y="10" width="56" height="56" rx="14" fill="url(#paint0_linear_6005_6061)" shape-rendering="crispEdges"/>
<path d="M47.684 26H40.316C33.592 26 32 27.592 32 34.316V41.684C32 48.408 33.592 50 40.316 50H47.684C54.408 50 56 48.408 56 41.684V34.316C56 27.592 54.408 26 47.684 26ZM51.376 43.123H49.632C48.972 43.123 48.77 42.6 47.583 41.41C46.55 40.4 46.093 40.275 45.839 40.275C45.483 40.275 45.381 40.377 45.381 40.868V42.443C45.381 42.867 45.246 43.121 44.128 43.121C42.282 43.121 40.232 42.001 38.789 39.919C36.619 36.871 36.026 34.58 36.026 34.109C36.026 33.855 36.128 33.621 36.619 33.621H38.363C38.803 33.621 38.973 33.824 39.143 34.299C40.007 36.789 41.446 38.974 42.039 38.974C42.259 38.974 42.361 38.872 42.361 38.313V35.721C42.293 34.535 41.666 34.434 41.666 34.011C41.666 33.808 41.836 33.604 42.106 33.604H44.85C45.223 33.604 45.358 33.807 45.358 34.247V37.72C45.358 38.092 45.528 38.228 45.629 38.228C45.849 38.228 46.036 38.092 46.443 37.686C47.713 36.264 48.613 34.066 48.613 34.066C48.732 33.812 48.935 33.578 49.376 33.578H51.12C51.645 33.578 51.764 33.848 51.645 34.221C51.425 35.238 49.291 38.252 49.291 38.252C49.105 38.557 49.037 38.692 49.291 39.032C49.477 39.286 50.087 39.811 50.494 40.285C51.239 41.132 51.814 41.843 51.967 42.334C52.137 42.808 51.882 43.05 51.391 43.05L51.376 43.123Z" fill="white"/>
</g>
<defs>
<filter id="filter0_d_6005_6061" x="0" y="0" width="88" height="88" filterUnits="userSpaceOnUse" color-interpolation-filters="sRGB">
<feFlood flood-opacity="0" result="BackgroundImageFix"/>
<feColorMatrix in="SourceAlpha" type="matrix" values="0 0 0 0 0 0 0 0 0 0 0 0 0 0 0 0 0 0 127 0" result="hardAlpha"/>
<feOffset dy="6"/>
<feGaussianBlur stdDeviation="8"/>
<feComposite in2="hardAlpha" operator="out"/>
<feColorMatrix type="matrix" values="0 0 0 0 0 0 0 0 0 0.466667 0 0 0 0 1 0 0 0 0.25 0"/>
<feBlend mode="normal" in2="BackgroundImageFix" result="effect1_dropShadow_6005_6061"/>
<feBlend mode="normal" in="SourceGraphic" in2="effect1_dropShadow_6005_6061" result="shape"/>
</filter>
<linearGradient id="paint0_linear_6005_6061" x1="16" y1="10" x2="72" y2="66" gradientUnits="userSpaceOnUse">
<stop stop-color="#0077FF"/>
<stop offset="1" stop-color="#0055CC"/>
</linearGradient>
</defs>
</svg>
