<svg width="56" height="56" viewBox="0 0 56 56" fill="none" xmlns="http://www.w3.org/2000/svg">
<g clip-path="url(#clip0_10066_5)">
<path d="M47.6 0H8.4C3.76081 0 0 3.76081 0 8.4V47.6C0 52.2392 3.76081 56 8.4 56H47.6C52.2392 56 56 52.2392 56 47.6V8.4C56 3.76081 52.2392 0 47.6 0Z" fill="#25D366"/>
<path d="M13.4531 42.9844L14.9844 35.875C13.0163 32.7707 12.2485 29.055 12.8251 25.425C13.4018 21.7949 15.2831 18.5 18.1163 16.1585C20.9495 13.8169 24.5397 12.5896 28.2134 12.7068C31.8871 12.8241 35.3917 14.2778 38.0698 16.7952C40.748 19.3126 42.4155 22.7208 42.7595 26.3802C43.1035 30.0396 42.1004 33.6988 39.9384 36.6712C37.7764 39.6437 34.6041 41.7251 31.0166 42.5249C27.4291 43.3248 23.6731 42.7881 20.4531 41.0156L13.4531 42.9844Z" fill="#25D366" stroke="white" stroke-width="3"/>
<path d="M33.6875 29.8594C33.3594 29.6406 33.0313 29.5312 32.7031 29.9687L31.3906 31.7187C31.0625 31.9375 30.8438 32.0469 30.4063 31.8281C28.7656 30.9531 26.4688 29.9687 24.5 26.6875C24.3906 26.25 24.6094 26.0312 24.8281 25.8125L25.8125 24.2812C26.0313 24.0625 25.9219 23.8437 25.8125 23.625L24.5 20.4531C24.1719 19.5781 23.8438 19.6875 23.5156 19.6875H22.6406C22.4219 19.6875 21.9844 19.7969 21.5469 20.2344C19.1406 22.6406 20.125 26.0312 21.875 28.2187C22.2031 28.6562 24.3906 32.5937 29.0938 34.6719C32.5938 36.2031 33.3594 35.9844 34.3438 35.7656C35.5469 35.6562 36.75 34.6719 37.2969 33.6875C37.4063 33.3594 37.9531 31.9375 37.5156 31.7187" fill="white"/>
</g>
<defs>
<clipPath id="clip0_10066_5">
<rect width="56" height="56" rx="14" fill="white"/>
</clipPath>
</defs>
</svg>
